# xmcd
#
# Track frame offsets:
#	150
#	14015
#	28537
#	41100
#	59985
#	81537
#	97368
#	110106
#	121666
#	134191
#	150596
#	163318
#
# Disc length: 2343
#
# Revision: 1
# Processed by: cddbd v1.5.1PL0 Copyright (c) Steve Scherf et al.
# Submitted via: audiograbber 1.82.01
# Normalized: r0:DSETVAR1
#
DISCID=bb09250c
DTITLE=Various Artist - Just Blues [CD 4) Feelin Low Down
DYEAR=2003
DGENRE=Blues
TTITLE0=Muddy Waters - Forty Days And Forty Nights
TTITLE1=Hooker, John Lee - Don't Go Baby
TTITLE2=Williamson, Sonny Boy - Little Low Woman Blues
TTITLE3=Howlin' Wolf - Howlin' For My Darlin'
TTITLE4=Broonzy, Big Bill - Feelin' Low Down
TTITLE5=Hurt, Mississippi John - Baby What's Wrong With You
TTITLE6=Washington, Dinah - All Or Nothin' Blues
TTITLE7=Charles, Ray - How Long, How Long Blues
TTITLE8=Johnson, Lonnie - Love Is The Answer
TTITLE9=Memphis Slim - Just Let Me Be
TTITLE10=Smith, Bessie - I Used To Your Sweet Mama
TTITLE11=Turner, Joe - Sun Risin' Blues
EXTD=
EXTT0=
EXTT1=
EXTT2=
EXTT3=
EXTT4=
EXTT5=
EXTT6=
EXTT7=
EXTT8=
EXTT9=
EXTT10=
EXTT11=
PLAYORDER=
